<svg width="26" height="26" fill="none" xmlns="http://www.w3.org/2000/svg"><g clip-path="url(#a)"><path d="M25.932 9.972a1.38 1.38 0 0 0-1.188-.949l-7.506-.68-2.966-6.945a1.382 1.382 0 0 0-2.543 0L8.763 8.342l-7.507.681a1.384 1.384 0 0 0-.785 2.418l5.674 4.975-1.673 7.368a1.382 1.382 0 0 0 2.056 1.494L13 21.408l6.47 3.87a1.381 1.381 0 0 0 2.058-1.494l-1.673-7.368 5.674-4.975c.416-.365.574-.94.403-1.469Z" fill="url(#b)"/></g><defs><linearGradient id="b" x1="0" y1="13.243" x2="26" y2="13.243" gradientUnits="userSpaceOnUse"><stop stop-color="#9F2C25"/><stop offset="1" stop-color="#E31B1B"/></linearGradient><clipPath id="a"><path fill="#fff" d="M0 0h26v26H0z"/></clipPath></defs></svg>