<svg width="25" height="25" fill="none" xmlns="http://www.w3.org/2000/svg"><g clip-path="url(#a)"><rect width="25" height="25" rx="6" fill="#B02822"/><path fill-rule="evenodd" clip-rule="evenodd" d="M13.486 5.65c-.676.121-1.151.385-1.541.855-.328.396-.533.861-.649 1.472-.044.231-.05.37-.058 1.459l-.01 1.203H9.375V13.084l.922.007.922.007.006 3.139.006 3.138h2.208v-6.29h.917c.504 0 .916-.003.917-.007.061-.49.27-2.405.264-2.42-.005-.01-.48-.02-1.055-.02h-1.046l.008-1c.008-.98.01-1.006.064-1.161.11-.315.341-.502.687-.553.095-.014.455-.026.801-.026l.629-.001-.006-1.096-.006-1.095-.306-.032c-.5-.052-1.587-.067-1.82-.025Z" fill="#fff"/></g><defs><clipPath id="a"><path fill="#fff" d="M0 0h25v25H0z"/></clipPath></defs></svg>