<svg width="25" height="25" fill="none" xmlns="http://www.w3.org/2000/svg"><g clip-path="url(#a)"><rect width="25" height="25" rx="6" fill="#B02822"/><path fill-rule="evenodd" clip-rule="evenodd" d="M9.93 5.64c-.887.038-1.498.15-2.012.371a3.225 3.225 0 0 0-1.121.749c-.48.476-.78 1.01-.969 1.73-.166.633-.203 1.362-.203 4.004 0 2.599.035 3.337.19 3.97.388 1.58 1.547 2.584 3.25 2.817.49.066 1.513.094 3.467.094 1.817 0 2.865-.026 3.336-.082.964-.114 1.72-.446 2.313-1.016.671-.645 1.026-1.418 1.156-2.517.051-.43.05-6.167 0-6.572-.104-.823-.351-1.5-.738-2.018-.192-.258-.6-.65-.856-.822-.58-.39-1.276-.607-2.195-.683-.433-.036-4.882-.055-5.617-.025Zm5.826 1.298c.768.114 1.198.305 1.612.716.269.267.419.504.55.869.221.62.241.947.241 3.985 0 1.75-.01 2.59-.033 2.874-.079.932-.264 1.435-.702 1.901-.453.482-1.023.723-1.903.804-.477.043-4.416.065-5.323.029-.41-.017-.838-.043-.954-.06-.509-.07-1.002-.25-1.308-.474a3.025 3.025 0 0 1-.613-.664c-.225-.375-.36-.904-.405-1.576-.081-1.22-.055-5.41.038-6.102.096-.72.319-1.202.742-1.611.465-.45 1.073-.668 2.015-.725.203-.012 1.58-.019 3.061-.015 2.298.006 2.736.013 2.982.05Zm.08 1.15c-.305.152-.449.387-.45.737 0 .253.06.404.233.575.17.17.322.232.575.232.182 0 .24-.012.369-.075a.773.773 0 0 0 .447-.681c.018-.277-.042-.44-.234-.63-.179-.178-.333-.24-.596-.24a.627.627 0 0 0-.343.081Zm-3.949.928a3.468 3.468 0 0 0-1.863.988c-.699.698-1.037 1.51-1.037 2.49 0 .59.11 1.077.357 1.567a3.54 3.54 0 0 0 4.027 1.86 3.338 3.338 0 0 0 1.6-.891 3.41 3.41 0 0 0 .897-1.407 3.22 3.22 0 0 0 .178-1.129c0-.435-.047-.74-.175-1.12a3.346 3.346 0 0 0-.813-1.328 3.511 3.511 0 0 0-1.93-1.031 4.91 4.91 0 0 0-1.24.001Zm1.067 1.231a2.3 2.3 0 0 1 1.815 2.685 2.315 2.315 0 0 1-1.402 1.69c-.344.132-.545.164-.943.15-.282-.01-.394-.027-.579-.086a2.303 2.303 0 0 1-1.579-1.746 2.61 2.61 0 0 1 .057-1.118c.255-.8.93-1.412 1.735-1.572.24-.048.654-.049.896-.003Z" fill="#fff"/></g><defs><clipPath id="a"><path fill="#fff" d="M0 0h25v25H0z"/></clipPath></defs></svg>