<svg width="14" height="14" fill="none" xmlns="http://www.w3.org/2000/svg"><g clip-path="url(#a)" fill="#2867D4"><path d="M13.877 2.57 9.63 6.789l4.246 4.218c.077-.16.123-.338.123-.527V3.097c0-.19-.046-.367-.123-.527ZM12.77 1.867H1.23c-.19 0-.366.046-.527.123l5.427 5.4c.48.48 1.26.48 1.74 0l5.427-5.4a1.217 1.217 0 0 0-.528-.123ZM.123 2.57C.047 2.73 0 2.908 0 3.097v7.383c0 .19.047.367.123.527L4.37 6.79.123 2.57Z"/><path d="m9.05 7.369-.6.6c-.8.8-2.1.8-2.9 0l-.6-.6-4.247 4.218c.16.077.338.123.527.123h11.54c.189 0 .366-.046.527-.123L9.05 7.37Z"/></g><defs><clipPath id="a"><path fill="#fff" d="M0 0h14v14H0z"/></clipPath></defs></svg>