<svg width="14" height="14" fill="none" xmlns="http://www.w3.org/2000/svg"><g clip-path="url(#a)"><path d="M13.619 10.275 11.665 8.32c-.698-.698-1.884-.419-2.163.488-.21.628-.907.977-1.535.838-1.396-.35-3.28-2.163-3.628-3.629-.21-.628.209-1.326.837-1.535.907-.279 1.186-1.465.488-2.163L3.711.366c-.559-.488-1.396-.488-1.884 0L.5 1.692C-.825 3.088.64 6.786 3.92 10.065c3.28 3.28 6.978 4.815 8.373 3.42l1.326-1.326c.488-.559.488-1.396 0-1.884Z" fill="#2867D4"/></g><defs><clipPath id="a"><path fill="#fff" d="M0 0h14v14H0z"/></clipPath></defs></svg>