<svg width="25" height="25" fill="none" xmlns="http://www.w3.org/2000/svg"><g clip-path="url(#a)"><rect width="25" height="25" rx="6" fill="#B02822"/><path d="M12.829 7.002a1.458 1.458 0 0 0-.168 0 .808.808 0 0 0-.507.215.69.69 0 0 0-.16.254c.006-.018.008-.033.017-.051a7.26 7.26 0 0 0-1.193-.14C7.701 7.28 7 8.893 7 9.46c0 3.585 6.04 7.087 9.541 7.087h.01c.121 0 1.104-.021 1.793-.7.435-.429.656-1.019.656-1.758-.001-.087-.049-2.156-1.648-3.753l.008.155c-.018-1.137-.548-1.906-1.213-2.35-.649-.43-1.394-.568-1.972-.579a4.365 4.365 0 0 0-.744-.417 2.154 2.154 0 0 0-.602-.143Zm-.127.544c.105-.007.283.013.544.11a2.49 2.49 0 0 0 .679.383.271.271 0 0 0 .166.058c.494 0 1.2.132 1.755.5.552.367.972.943.972 1.953v.004c.002.08-.007.117-.057.159-.05.044-.185.11-.488.11-.831 0-1.429-.399-1.841-.914-.412-.515-.614-1.16-.614-1.522a.272.272 0 1 0-.545 0c0 .164.066.36.11.549-.59-.314-.798-.62-.875-.824a.662.662 0 0 1-.045-.237c.001-.052.004-.055.004-.055a.273.273 0 0 0 .013-.083s.006-.083.056-.132c.025-.023.06-.051.166-.059Zm-.767.16v.006l-.001.008v-.015Zm-.003.02Zm-.01.19Zm.022.19c.008.039.02.08.033.12-.013-.04-.025-.081-.033-.12Zm.08.261Zm.047.098c.016.03.032.059.051.089-.019-.03-.035-.06-.051-.089Zm.072.124Zm.095.132Zm.123.14c.046.047.095.095.149.143a2.959 2.959 0 0 0 .39.285c.075.046.155.093.242.138a28.846 28.846 0 0 0-.001.001 4.418 4.418 0 0 1-.241-.139 2.959 2.959 0 0 1-.39-.285 2.78 2.78 0 0 1-.15-.143Zm1.063.709c.087.042.18.088.262.123.101.187.178.378.32.556a3.48 3.48 0 0 1-.382-.58c-.08-.036-.119-.059-.2-.1Zm.793.916c.415.426.976.763 1.673.855a2.81 2.81 0 0 1-1.673-.855Zm3.147.06v.004a.761.761 0 0 1 0-.003Zm-.136.455c-.021.03-.042.06-.069.086l-.022.018a.637.637 0 0 0 .091-.104Zm-.175.168c-.025.018-.048.037-.076.052.028-.015.051-.034.076-.052Zm-.185.1c-.028.01-.054.023-.085.033.03-.01.056-.022.085-.033Zm-.233.065c-.03.005-.058.013-.09.017.032-.004.06-.012.09-.017Zm-.709.011c.112.014.227.023.347.023.034 0 .063-.004.093-.005-.032 0-.06.005-.093.005-.12 0-.235-.01-.346-.023Zm-8.633.667a14.08 14.08 0 0 0-.293 2.9C7 17.16 10.912 19 12.182 19c.888 0 2.321-.776 3.656-1.947a8.303 8.303 0 0 1-.721-.11c-.738.597-1.494 1.068-2.114 1.316-.027-.317.346-.622.346-.622l.861-.91c-.39-.111-.788-.247-1.186-.404-.43.543-1.314 1.587-1.75 1.587-.298 0-.453-.164-.456-.411-.005-.503.467-1.345.77-1.834-.357-.188-.71-.392-1.052-.609-.322.542-.935 1.463-1.399 1.49a.312.312 0 0 1-.222-.076c-.614-.514-.072-1.762.265-2.398a11.54 11.54 0 0 1-.733-.662c-.215.726-.578 1.774-.867 1.774l-.007-.001a1.459 1.459 0 0 1-.028-.272c0-.9.087-1.678.19-2.287a7.32 7.32 0 0 1-.442-.612Z" fill="#fff"/></g><defs><clipPath id="a"><path fill="#fff" d="M0 0h25v25H0z"/></clipPath></defs></svg>