<svg width="25" height="25" fill="none" xmlns="http://www.w3.org/2000/svg"><g clip-path="url(#a)"><rect width="25" height="25" rx="6" fill="#B02822"/><path fill-rule="evenodd" clip-rule="evenodd" d="M11.285 8.005c-.285.022-.647.08-.791.127-.249.082-.558.372-.501.47.01.018.068.042.128.054.269.052.496.213.597.424.174.359.252 1.483.159 2.279-.062.526-.088.648-.18.839-.245.511-.81.097-1.432-1.051a35.519 35.519 0 0 1-.983-2.07c-.168-.424-.222-.502-.413-.604l-.16-.087-1.218.01c-1.099.008-1.226.014-1.312.064-.136.078-.194.185-.176.324.02.15.481 1.232.821 1.925.662 1.35 1.223 2.331 1.823 3.187.881 1.258 1.271 1.666 2.172 2.273.421.284.725.443 1.1.575.516.182.74.217 1.51.235.766.019.986-.005 1.149-.121.133-.096.175-.23.2-.642.024-.408.1-.757.203-.944.092-.164.29-.354.376-.359.298-.015.464.115 1.086.85.583.69.798.893 1.12 1.055.146.074.324.148.396.165.176.043 2.551-.005 2.704-.054.152-.049.316-.218.32-.33.01-.307-.033-.446-.236-.77-.268-.427-.498-.699-1.28-1.516-.832-.869-.89-.95-.891-1.24-.001-.244.107-.431.836-1.451 1.03-1.439 1.442-2.134 1.557-2.624.067-.287.029-.426-.145-.524l-.123-.07-1.48.011c-1.048.007-1.503.021-1.554.047-.1.049-.205.23-.337.577-.351.925-1.075 2.257-1.553 2.857-.19.24-.485.484-.583.484-.138 0-.251-.094-.337-.278l-.08-.17.009-1.607c.008-1.727.005-1.778-.147-2.006-.149-.225-.513-.302-1.489-.315a18.986 18.986 0 0 0-.865.001Z" fill="#fff"/></g><defs><clipPath id="a"><path fill="#fff" d="M0 0h25v25H0z"/></clipPath></defs></svg>